HIERARCHY
ROOT hip
{
	OFFSET 0.000000 0.000000 0.000000 
	CHANNELS 6 Xposition Yposition Zposition Xrotation Zrotation Yrotation
	JOINT abdomen
	{
		OFFSET 0.000000 3.402643 0.000000 
		CHANNELS 3 Xrotation Zrotation Yrotation
		JOINT chest
		{
			OFFSET 0.000000 8.438565 -0.680529 
			CHANNELS 3 Xrotation Zrotation Yrotation
			JOINT neck
			{
				OFFSET 0.000000 10.207942 -0.272212 
				CHANNELS 3 Xrotation Zrotation Yrotation
				JOINT head
				{
					OFFSET 0.000000 3.130431 0.000000 
					CHANNELS 3 Xrotation Zrotation Yrotation
					End Site
					{
						OFFSET 0.000000 3.130435 0.000000 
					}
				}
			}
			JOINT lCollar
			{
				OFFSET 3.470700 6.669187 -0.816635 
				CHANNELS 3 Yrotation Zrotation Xrotation
				JOINT lShldr
				{
					OFFSET 3.198488 0.000000 0.000000 
					CHANNELS 3 Zrotation Yrotation Xrotation
					JOINT lForeArm
					{
						OFFSET 10.139888 0.000000 0.000000 
						CHANNELS 3 Yrotation Zrotation Xrotation
						JOINT lHand
						{
							OFFSET 8.370511 0.000000 0.000000 
							CHANNELS 3 Zrotation Yrotation Xrotation
							End Site
							{
								OFFSET 4.083176 0.000000 0.000000 
							}
						}
					}
				}
			}
			JOINT rCollar
			{
				OFFSET -3.470700 6.669187 -0.816635 
				CHANNELS 3 Yrotation Zrotation Xrotation
				JOINT rShldr
				{
					OFFSET -3.198488 0.000000 0.000000 
					CHANNELS 3 Zrotation Yrotation Xrotation
					JOINT rForeArm
					{
						OFFSET -10.139888 0.000000 0.000000 
						CHANNELS 3 Yrotation Zrotation Xrotation
						JOINT rHand
						{
							OFFSET -8.370511 0.000000 0.000000 
							CHANNELS 3 Zrotation Yrotation Xrotation
							End Site
							{
								OFFSET -4.083176 0.000000 0.000000 
							}
						}
					}
				}
			}
		}
	}
	JOINT lThigh
	{
		OFFSET 5.308129 -1.633274 1.361059 
		CHANNELS 3 Xrotation Zrotation Yrotation
		JOINT lShin
		{
			OFFSET -2.041588 -20.007561 0.000000 
			CHANNELS 3 Xrotation Zrotation Yrotation
			JOINT lFoot
			{
				OFFSET 0.000000 -19.190928 -1.224953 
				CHANNELS 3 Xrotation Yrotation Zrotation
				End Site
				{
					OFFSET 0.000000 -2.449906 4.627600 
				}
			}
		}
	}
	JOINT rThigh
	{
		OFFSET -5.308129 -1.633274 1.361059 
		CHANNELS 3 Xrotation Zrotation Yrotation
		JOINT rShin
		{
			OFFSET 2.041588 -20.007561 0.000000 
			CHANNELS 3 Xrotation Zrotation Yrotation
			JOINT rFoot
			{
				OFFSET 0.000000 -19.190928 -1.224953 
				CHANNELS 3 Xrotation Yrotation Zrotation
				End Site
				{
					OFFSET 0.000000 -2.449906 4.627600 
				}
			}
		}
	}
}
MOTION
Frames: 13
Frame Time: 0.033333
0.025379 49.079323 0.883565 -4.863312 -0.204340 0.720511 0.000000 0.000000 0.000000 -0.800805 0.439410 0.589561 2.816404 -0.719158 0.768992 5.371030 0.360753 -0.176624 1.007898 10.126840 -3.695293 8.986827 8.961432 -9.512639 1.066779 -6.772922 2.788799 13.308277 -0.369322 -0.764861 -0.335310 -9.767056 -3.517115 -5.899013 -6.999481 -3.053902 -1.055053 4.083230 2.617237 -16.642626 5.070434 4.273911 7.348906 10.180593 5.708476 11.487402 -2.966461 16.685919 -10.253644 0.450194 -5.036030 10.083140 -8.414096 -4.367774 4.492226 3.093843 -0.904971 -7.325276 -0.396274 6.081398 
0.025629 49.083851 0.944650 -4.853563 -0.252996 0.763670 0.000000 0.000000 0.000000 -0.820342 0.488231 0.637541 2.628351 -0.693233 0.616740 5.771419 0.390148 -0.409925 1.079651 10.072287 -3.774180 8.926982 8.893439 -9.534765 1.154865 -6.784539 2.787611 13.382019 -0.442343 -0.895005 -0.484036 -9.729604 -3.623277 -5.765608 -6.879989 -3.901536 -0.903062 3.787921 2.599833 -15.505513 4.566828 4.460909 7.401126 10.273443 5.800660 11.456987 -3.015853 16.537113 -10.297085 0.460957 -4.998849 10.017180 -8.445550 -4.530725 4.733974 3.327651 -0.884093 -7.383259 -0.402127 5.940599 
0.040353 49.079193 1.018056 -4.843794 -0.243269 0.870224 0.000000 0.000000 0.000000 -0.888702 0.468694 0.578667 2.612448 -0.595869 0.431940 5.830070 0.136559 -0.377709 1.055747 10.249450 -3.914249 8.668891 8.904413 -9.695634 1.175049 -6.745792 2.787848 13.408502 -0.538346 -0.866695 -0.501235 -9.542180 -3.738299 -5.847399 -6.977798 -3.741685 -0.903062 3.787921 2.599833 -15.632765 4.694571 4.953157 7.426543 10.268673 5.791294 11.519016 -2.968086 16.215542 -10.437585 0.452644 -4.950716 9.734142 -8.494802 -4.576578 5.546558 3.426750 -0.748481 -7.752112 -0.410134 5.878837 
0.043625 49.067867 1.074721 -4.755879 -0.165444 1.000093 0.000000 0.000000 0.000000 -1.005889 0.439385 0.568457 2.515252 -0.679618 0.379151 5.966771 0.253637 -0.421837 1.010576 10.075497 -4.079320 8.893071 8.953839 -9.253897 1.153295 -6.901622 2.792317 13.476550 -0.396371 -1.319295 -0.576623 -9.566706 -3.922881 -5.771554 -6.881169 -3.568390 -1.703180 3.890522 2.607759 -16.083832 5.611207 6.151659 7.289534 10.151229 5.624212 11.546409 -2.930021 16.373066 -10.432147 0.453965 -5.025666 9.959719 -8.583810 -4.710394 5.074041 3.423936 -0.936606 -7.704301 -0.407191 5.943707 
0.033180 49.060570 1.159162 -4.912150 -0.233514 0.957569 0.000000 0.000000 0.000000 -0.996131 0.497972 0.596811 2.561383 -0.712534 0.472021 5.927712 0.234119 -0.430864 1.074901 10.011901 -4.078702 8.813136 9.080735 -9.385453 1.037155 -6.782255 2.786450 13.299946 -0.389503 -0.871837 -0.540980 -9.647973 -3.904802 -5.699990 -6.941440 -3.201561 -1.574107 4.015293 2.608253 -16.722538 5.612895 5.831180 7.593632 10.309142 5.849757 11.550267 -3.008262 16.268614 -10.519577 0.468501 -5.062989 10.183519 -8.465857 -4.633823 5.103605 3.414471 -0.915351 -7.799670 -0.415283 5.909393 
0.031416 49.067738 1.220663 -4.980476 -0.097288 0.926447 0.000000 0.000000 0.000000 -1.015643 0.341743 0.628707 2.475191 -0.625772 0.537174 6.123042 0.107321 -0.326915 1.159582 10.025258 -4.133161 8.833731 9.090606 -9.335697 1.046719 -6.801911 2.788106 13.143513 -0.390954 -0.913518 -0.516160 -9.679033 -3.963070 -5.637348 -6.960531 -3.419436 -1.106083 3.947423 2.614233 -16.447617 4.957591 4.653582 8.220230 9.978061 5.965558 10.884820 -3.055909 18.172558 -10.116918 0.483438 -5.320657 10.131045 -8.569680 -4.660228 5.504896 3.365406 -0.782281 -7.998386 -0.412469 5.913883 
0.027517 49.068115 1.287095 -5.097660 -0.068089 1.050996 0.000000 0.000000 0.000000 -1.015645 0.361271 0.608830 2.504526 -0.731673 0.613769 5.947243 0.234123 -0.255002 1.164893 10.025072 -4.128207 8.652935 9.061592 -9.549477 1.037958 -6.723708 2.784217 13.187280 -0.319275 -1.081765 -0.594889 -9.741965 -3.962027 -5.556186 -7.028702 -3.590858 -0.794626 3.853858 2.607432 -15.885912 4.666149 4.239195 8.105189 9.931636 5.847487 11.361007 -3.015649 18.222012 -10.366525 0.498034 -5.176449 10.255884 -8.607393 -4.746552 5.702670 3.356906 -0.710801 -8.098541 -0.434878 5.948169 
0.022105 49.042324 1.324747 -5.039081 -0.155646 1.097709 0.000000 0.000000 0.000000 -1.103551 0.458899 0.586864 2.377336 -0.726709 0.726268 5.957003 0.263391 -0.168425 1.260478 10.026492 -4.297892 8.645473 9.081874 -9.423143 1.037556 -6.752980 2.785333 13.084464 -0.522472 -0.597962 -0.582254 -9.841161 -4.116886 -5.507051 -6.941122 -3.573498 -1.155199 3.919540 2.605474 -15.800886 4.975971 4.212026 7.777911 10.219791 5.772431 11.676204 -2.988336 16.213152 -10.735853 0.467964 -5.066156 10.169164 -8.481704 -4.577357 5.734450 3.217150 -0.966370 -8.207375 -0.443936 6.063806 
0.018835 49.034271 1.379652 -5.146506 -0.165346 1.147704 0.000000 0.000000 0.000000 -1.103552 0.468663 0.586676 2.347622 -0.734239 0.779042 5.869123 0.204845 -0.097674 1.228909 9.891613 -4.313962 8.745570 9.159598 -9.350271 1.076742 -6.763305 2.789327 13.317388 -0.495948 -0.794237 -0.562442 -9.783895 -4.120794 -5.576340 -7.028708 -3.559374 -1.126148 3.899547 2.603451 -15.876850 4.941000 4.258372 8.283958 10.042923 5.857680 11.251634 -2.938309 17.728437 -10.450459 0.500818 -5.489801 10.541455 -8.472752 -4.696663 5.397972 3.308453 -1.054608 -8.183979 -0.451871 6.016806 
0.001088 49.055542 1.409754 -5.126989 -0.213984 1.181308 0.000000 0.000000 0.000000 -1.181680 0.468650 0.576271 2.201278 -0.716589 0.852767 6.025374 0.204871 -0.028756 1.232605 9.870718 -4.425979 8.720838 9.365871 -9.165738 0.811983 -6.748487 2.784043 13.162218 -0.242750 -0.807380 -0.510866 -9.611635 -4.222820 -5.743218 -7.105924 -3.570696 -1.058370 3.868564 2.609165 -15.601308 4.667505 4.495424 8.051277 10.142250 5.896372 11.645841 -2.960424 17.798296 -10.607558 0.487053 -5.228270 10.559505 -8.373803 -4.581886 5.327578 3.256796 -1.099725 -8.030530 -0.439599 6.030710 
-0.013130 49.049995 1.437566 -5.097658 0.038908 1.187935 0.000000 0.000000 0.000000 -1.259769 0.126922 0.651506 2.193171 -0.666135 0.805034 5.898415 0.234114 -0.050124 1.268909 9.906308 -4.526783 8.731257 9.258784 -9.086577 1.105439 -6.822273 2.794346 13.242247 -0.403443 -0.908291 -0.512668 -9.709636 -4.327644 -5.531969 -7.283527 -3.367501 -0.774749 3.873051 2.607247 -15.378287 4.439073 4.378815 8.796303 9.949178 6.002176 10.288391 -2.928619 17.685720 -9.993823 0.486504 -5.501019 10.950961 -8.423426 -4.571637 4.568630 3.229109 -1.531636 -8.028004 -0.421352 5.931768 
-0.035403 49.031128 1.461576 -5.126967 -0.136172 1.291515 0.000000 0.000000 0.000000 -1.279313 0.283133 0.638208 2.145896 -0.523997 0.709539 5.771476 -0.136552 -0.012776 1.241216 9.966944 -4.567756 8.693886 9.269409 -8.981197 1.075284 -6.870637 2.793495 13.310455 -0.535610 -0.793793 -0.486935 -9.564855 -4.373172 -5.559360 -7.440998 -2.975243 -0.919873 3.963896 2.606814 -16.046843 4.850129 4.592708 8.266482 10.200699 6.027977 11.324673 -2.939480 17.528748 -10.463516 0.521167 -5.480155 10.744756 -8.286435 -4.469321 5.105922 3.201520 -1.447880 -8.226797 -0.439779 5.969434 
-0.042327 49.035652 1.463566 -5.126966 -0.126445 1.339470 0.000000 0.000000 0.000000 -1.298842 0.263604 0.638555 2.155269 -0.577869 0.779160 5.615227 -0.126781 0.045681 1.209278 9.910655 -4.572342 8.697827 9.338769 -8.786273 1.084457 -6.919565 2.796322 13.377194 -0.511226 -0.562534 -0.518968 -9.581982 -4.387787 -5.430405 -7.421862 -3.050011 -1.037742 3.936546 2.610882 -16.564922 5.213296 4.833336 8.313946 10.189541 6.037544 11.238050 -2.949922 17.484880 -10.443896 0.499648 -5.447120 10.648073 -8.296630 -4.500284 5.385015 3.228195 -1.291782 -8.331357 -0.452490 5.943828 
